<svg width="95" height="95" viewBox="0 0 95 95" fill="none" xmlns="http://www.w3.org/2000/svg">
<path d="M14.9331 3.46664C10.9331 6.26664 10.9331 13.7333 14.9331 16.5333C19.3331 19.6 23.4664 19.0666 26.5331 15.2C29 11.5 28.5 8.5 26.5331 4.79997C23.4664 0.933304 19.3331 0.399969 14.9331 3.46664Z" fill="white"/>
<path d="M68 2.98031C64 5.78031 64 13.247 68 16.047C72.4 19.1136 76.5333 18.5803 79.6 14.7136C82.0669 11.0137 81.5669 8.01367 79.6 4.31364C76.5333 0.446976 72.4 -0.086359 68 2.98031Z" fill="white"/>
<path d="M14.6667 22.6665C12.2667 25.0665 12 27.0665 12 39.7332C12 55.8665 12 55.9999 22.4 61.1999L28 63.9999V73.0665C28 82.9332 29.6 85.9999 33.6 83.8666C35.6 82.7999 36 80.9332 36 70.5332C36 58.6665 36 58.5332 32.1333 56.3999C28.6667 54.3999 28.4 53.5999 29.0667 48.9332C29.6 44.1332 29.2 43.3332 22.5333 36.5332C16.6667 30.6665 15.6 28.9332 16.8 27.0665C18.9333 23.5999 20.6667 23.5999 25.2 27.3332C28.5333 30.1332 29.3333 30.3999 29.3333 28.6665C29.3333 25.5999 23.3333 19.9999 20 19.9999C18.5333 19.9999 16.1333 21.1999 14.6667 22.6665Z" fill="white"/>
<path d="M69.0665 22.2663C64.7999 27.333 64.7999 28.3997 68.9332 25.9997C73.7332 23.1997 77.3332 24.133 77.3332 27.9997C77.3332 29.733 75.0665 32.2663 71.1999 35.0663L65.0665 39.333L65.5999 46.7997C66.1332 53.8663 65.8665 54.3997 62.3999 56.3997C58.5332 58.533 58.5332 58.6663 58.9332 70.933C59.3332 83.1997 59.3332 83.333 62.6665 83.333C65.8665 83.333 65.9999 82.933 66.3999 73.5997L66.7999 63.9997L72.1332 61.333C82.1332 56.133 82.6665 55.0663 82.6665 39.333C82.6665 27.0663 82.2665 24.933 79.9999 22.6663C76.6665 19.333 71.7332 19.1997 69.0665 22.2663Z" fill="white"/>
<path d="M56.6668 25.4663C51.6001 27.1996 50.1334 28.3996 50.4001 30.2663C51.0668 33.4663 50.6668 33.3329 57.2001 31.7329C61.2001 30.6663 63.2001 29.3329 64.1334 27.0663C66.1334 21.8663 66.5334 21.8663 56.6668 25.4663Z" fill="white"/>
<path d="M29.8666 26.1334C30.2666 27.3334 30.6666 28.8001 30.6666 29.4668C30.6666 30.0001 33.9999 31.6001 38.1332 32.8001C44.9332 34.6668 45.8666 34.8001 47.7332 32.9334C49.9999 30.5334 49.1999 30.0001 36.2666 26.2668C29.8666 24.4001 29.1999 24.4001 29.8666 26.1334Z" fill="white"/>
<path d="M18.1332 27.4666C16.7998 30.7999 27.5998 41.0666 34.7998 43.1999C38.1332 44.2666 41.7332 44.5333 42.6665 43.9999C45.7332 42.1333 43.0665 38.9333 37.5998 37.9999C33.8665 37.4666 30.7998 35.4666 26.5332 31.1999C20.1332 24.7999 19.3332 24.3999 18.1332 27.4666Z" fill="white"/>
<path d="M66.6665 29.4666C63.3332 31.5999 58.5332 33.7332 55.8665 34.1332C49.3332 35.1999 47.4665 36.5332 48.5332 39.3332C49.1999 41.1999 50.3999 41.4666 54.3999 40.6666C62.1332 39.3332 75.1999 31.5999 75.7332 28.2666C76.2665 24.3999 73.9999 24.6666 66.6665 29.4666Z" fill="white"/>
<path d="M30.2664 50.6667C29.7331 52.6667 30.5331 53.8667 33.4664 55.3333C37.1998 57.3333 37.1998 57.6 37.5998 69.7333C37.9998 81.8667 37.9998 82 41.3331 82C44.6664 82 44.6664 82 45.0664 67.6L45.4664 53.3333L39.3331 50.6667C31.5998 47.3333 31.1998 47.3333 30.2664 50.6667Z" fill="white"/>
<path d="M54.933 50.6667L49.1997 53.2L49.5997 67.6C49.9997 82 49.9997 82 53.333 82C56.6664 82 56.6664 81.8667 57.0664 69.6C57.4664 57.8667 57.5997 57.2 60.6664 55.7333C62.7997 54.8 63.9997 53.2 63.9997 51.0667C63.9997 47.4667 62.533 47.3333 54.933 50.6667Z" fill="white"/>
<path d="M8.26655 57.5999C4.39989 61.4666 8.93322 67.9999 15.5999 67.9999C18.5332 67.9999 18.6666 68.5333 18.6666 76.7999C18.6666 84.6666 18.3999 85.4666 16.3999 84.6666C11.4666 82.6666 9.33322 82.3999 9.33322 83.8666C9.33322 84.7999 10.1332 85.3333 11.0666 85.1999C16.6666 84.5333 17.9999 87.4666 12.6666 88.7999C9.19989 89.5999 8.39989 91.1999 10.6666 92.6666C11.4666 93.0666 11.9999 92.9333 11.9999 92.2666C11.9999 91.5999 13.8666 90.2666 16.1332 89.3333C19.7332 87.8666 20.5332 87.9999 23.8666 90.3999C25.9999 91.9999 27.9999 92.7999 28.5332 92.3999C30.1332 90.6666 29.1999 89.5999 25.1999 88.7999C20.7999 87.9999 21.0666 85.3333 25.4666 85.3333C26.9332 85.3333 27.8666 84.7999 27.3332 83.9999C26.7999 83.1999 25.3332 83.1999 23.3332 83.9999C19.9999 85.1999 19.9999 85.1999 19.9999 76.6666C19.9999 68.9333 20.2666 68.1333 22.9332 67.7333C27.7332 67.0666 27.0666 64.5333 21.3332 61.9999C18.3999 60.6666 15.3332 58.7999 14.5332 57.7333C12.6666 55.5999 10.3999 55.4666 8.26655 57.5999Z" fill="#544646"/>
<path d="M81.0665 57.333C80.9332 57.9997 77.9998 59.9997 74.7998 61.5997C68.2665 65.0663 67.1998 67.0663 71.7332 67.733C74.3998 68.133 74.6665 68.933 74.6665 76.7997C74.6665 85.8663 74.5332 86.133 70.6665 83.9997C68.9332 83.0663 67.8665 83.0663 67.3332 83.9997C66.9332 84.6663 67.7332 85.333 69.1998 85.333C73.5998 85.333 73.5998 87.5997 69.1998 89.1997C66.9332 89.9997 65.4665 91.1997 65.9998 91.9997C66.5332 92.933 68.1332 92.3997 70.2665 90.6663C74.5332 87.333 76.1332 87.333 80.3998 90.6663C82.5332 92.3997 84.1332 92.933 84.6665 91.9997C85.1998 91.1997 83.7332 89.9997 81.4665 89.1997C76.7998 87.5997 77.1998 85.333 82.1332 85.333C83.8665 85.333 85.3332 84.6663 85.3332 83.8663C85.3332 82.3997 83.1998 82.6663 78.3998 84.6663C76.2665 85.4663 75.9998 84.6663 75.9998 76.7997C75.9998 68.533 76.1332 67.9997 79.0665 67.9997C86.2665 67.9997 90.9332 60.2663 85.4665 57.333C82.2665 55.733 81.7332 55.5997 81.0665 57.333Z" fill="#544646"/>
</svg>
