<svg width="72" height="72" viewBox="0 0 72 72" fill="none" xmlns="http://www.w3.org/2000/svg">
<path d="M36 36C31.05 36 26.8125 34.2375 23.2875 30.7125C19.7625 27.1875 18 22.95 18 18C18 13.05 19.7625 8.8125 23.2875 5.2875C26.8125 1.7625 31.05 0 36 0C40.95 0 45.1875 1.7625 48.7125 5.2875C52.2375 8.8125 54 13.05 54 18C54 22.95 52.2375 27.1875 48.7125 30.7125C45.1875 34.2375 40.95 36 36 36ZM9.00001 72C6.52501 72 4.40551 71.118 2.64151 69.354C0.877507 67.59 -0.00299236 65.472 7.64007e-06 63V59.4C7.64007e-06 56.85 0.657008 54.5055 1.97101 52.3665C3.28501 50.2275 5.02801 48.597 7.20001 47.475C11.85 45.15 16.575 43.4055 21.375 42.2415C26.175 41.0775 31.05 40.497 36 40.5C40.95 40.5 45.825 41.082 50.625 42.246C55.425 43.41 60.15 45.153 64.8 47.475C66.975 48.6 68.7195 50.232 70.0335 52.371C71.3475 54.51 72.003 56.853 72 59.4V63C72 65.475 71.118 67.5945 69.354 69.3585C67.59 71.1225 65.472 72.003 63 72H9.00001Z" fill="white"/>
</svg>
