<svg width="74" height="64" viewBox="0 0 74 64" fill="none" xmlns="http://www.w3.org/2000/svg">
<path d="M6.87969 37.4174L32.9965 61.7998C34.0805 62.8115 35.5113 63.3752 37 63.3752C38.4887 63.3752 39.9195 62.8115 41.0035 61.7998L67.1203 37.4174C71.5141 33.3271 74 27.5892 74 21.5912V20.7529C74 10.6502 66.7012 2.0361 56.743 0.373992C50.1523 -0.724446 43.4461 1.42907 38.7344 6.14079L37 7.87516L35.2656 6.14079C30.5539 1.42907 23.8477 -0.724446 17.257 0.373992C7.29883 2.0361 0 10.6502 0 20.7529V21.5912C0 27.5892 2.48594 33.3271 6.87969 37.4174Z" fill="white"/>
</svg>
