<svg width="84" height="67" viewBox="0 0 84 67" fill="none" xmlns="http://www.w3.org/2000/svg">
<path d="M27.9998 5.375C27.9998 2.78223 25.9144 0.6875 23.3331 0.6875C20.7519 0.6875 18.6665 2.78223 18.6665 5.375V10.0918C18.6665 18.0166 22.0935 25.3262 27.7373 30.3506L24.6748 51.8398C25.8123 52.1475 26.9352 52.3232 27.9998 52.3232C31.0769 52.3232 34.1248 51.0781 36.6331 49.3496C39.856 47.0791 44.1581 47.0791 47.381 49.3496C49.1894 50.5947 51.1873 51.5176 53.1706 51.9863L55.7519 37.6895C57.3123 37.5137 58.8581 37.2354 60.404 36.8838L75.7165 33.3828C78.2248 32.8115 79.7998 30.292 79.231 27.7725C78.6623 25.2529 76.154 23.6709 73.6456 24.2422L58.3331 27.7285C52.354 29.0908 46.1269 28.8271 40.2935 26.9668C32.9727 24.623 27.9998 17.7969 27.9998 10.0771V5.375ZM46.6665 24.125C49.1418 24.125 51.5158 23.1373 53.2661 21.3791C55.0165 19.621 55.9998 17.2364 55.9998 14.75C55.9998 12.2636 55.0165 9.87903 53.2661 8.12087C51.5158 6.36272 49.1418 5.375 46.6665 5.375C44.1911 5.375 41.8171 6.36272 40.0668 8.12087C38.3165 9.87903 37.3331 12.2636 37.3331 14.75C37.3331 17.2364 38.3165 19.621 40.0668 21.3791C41.8171 23.1373 44.1911 24.125 46.6665 24.125ZM44.6977 53.1143C43.079 51.957 40.9206 51.957 39.3019 53.1143C36.0206 55.3848 32.0102 56.9375 27.9998 56.9375C24.0769 56.9375 19.9352 55.3555 16.7123 53.1143C14.9769 51.8691 12.6144 51.9717 10.9956 53.3633C8.89562 55.1064 6.25603 56.4395 3.61645 57.0547C1.10812 57.6406 -0.452299 60.1602 0.131034 62.6797C0.714367 65.1992 3.2227 66.7666 5.73103 66.1807C9.30395 65.3457 12.279 63.7637 14.2185 62.5186C18.4477 64.8037 23.1873 66.3125 27.9998 66.3125C32.6519 66.3125 36.8373 64.8623 39.7248 63.5439C40.5706 63.1484 41.3435 62.7676 41.9998 62.416C42.656 62.7676 43.4144 63.1631 44.2748 63.5439C47.1623 64.8623 51.3477 66.3125 55.9998 66.3125C60.8123 66.3125 65.5519 64.8037 69.781 62.5332C71.7352 63.7637 74.6956 65.3604 78.2685 66.1953C80.7769 66.7812 83.2852 65.2139 83.8685 62.6943C84.4519 60.1748 82.8915 57.6553 80.3831 57.0693C77.7435 56.4541 75.104 55.1211 73.004 53.3779C71.3852 52.001 69.0227 51.8984 67.2873 53.1289C64.079 55.3555 59.9227 56.9375 55.9998 56.9375C51.9894 56.9375 47.979 55.3848 44.6977 53.1143Z" fill="white"/>
</svg>
