<svg width="83" height="74" viewBox="0 0 83 74" fill="none" xmlns="http://www.w3.org/2000/svg">
<path d="M23.6175 19.7864C19.3811 15.4794 19.3811 8.48408 23.6175 4.17705C27.854 -0.129981 34.713 -0.129981 38.9495 4.17705L41.5 6.77861L44.0505 4.17705C48.287 -0.129981 55.146 -0.129981 59.3825 4.17705C63.6189 8.48408 63.6189 15.4794 59.3825 19.7864L44.7422 34.7021C43.8488 35.6126 42.6816 36.0606 41.5 36.0606C40.3184 36.0606 39.1512 35.6126 38.2578 34.7021L23.6175 19.7864ZM81.876 48.606C83.7637 51.1786 83.2161 54.7919 80.6512 56.6853L62.4085 70.17C59.0366 72.656 54.9731 74.0001 50.7799 74.0001H27.6667H4.61111C2.06059 74.0001 0 71.9333 0 69.3751V60.1251C0 57.5669 2.06059 55.5001 4.61111 55.5001H9.91389L16.3839 50.297C19.6549 47.6665 23.7184 46.2501 27.9116 46.2501H39.1944H41.5H50.7222C53.2727 46.2501 55.3333 48.3169 55.3333 50.8751C55.3333 53.4333 53.2727 55.5001 50.7222 55.5001H41.5H39.1944C37.9264 55.5001 36.8889 56.5407 36.8889 57.8126C36.8889 59.0845 37.9264 60.1251 39.1944 60.1251H56.5726L73.821 47.3774C76.3859 45.4841 79.9884 46.0333 81.876 48.606ZM27.8972 55.5001H27.7675C27.8108 55.5001 27.854 55.5001 27.8972 55.5001Z" fill="white"/>
</svg>
