<svg width="85" height="68" viewBox="0 0 85 68" fill="none" xmlns="http://www.w3.org/2000/svg">
<path d="M9.90778 49.5655C15.4461 54.3601 24.2515 60.5225 31.9679 59.3538C32.7781 59.2343 33.575 59.0218 34.3586 58.7561C33.1367 57.1225 32.0609 55.5155 31.1445 54.0546C28.2359 49.4061 27.3195 44.0671 27.7047 38.9671C24.9687 39.5116 22.4984 40.6936 20.4398 42.3405C19.5765 43.0311 18.275 42.5132 18.4742 41.4108C19.3242 36.9616 22.857 33.3225 27.532 32.6054C27.8773 32.5522 28.2359 32.5124 28.5812 32.4991L31.1578 15.0608C31.4234 13.228 32.2203 10.7179 34.4781 8.96474C36.9484 7.06552 41.2383 4.91396 48.2375 4.27646C48.1312 4.18349 48.025 4.09052 47.9187 3.99755C45.2359 1.92567 38.3031 -1.52745 23.3351 0.743644C8.36716 3.01474 2.72263 8.36708 0.757001 11.1429C-2.98917e-05 12.2054 -0.10628 13.5468 0.0796576 14.8483L3.29372 36.6694C4.02419 41.6233 6.14919 46.3116 9.90778 49.5788V49.5655ZM21.5554 20.3999C22.1398 19.9882 22.9898 20.1343 23.1226 20.8382C23.1359 20.9046 23.1492 20.9843 23.1625 21.0507C23.5875 23.946 21.6218 26.6288 18.7664 27.0671C15.9109 27.5054 13.2547 25.4999 12.8297 22.6179C12.8164 22.5515 12.8164 22.4718 12.8031 22.4054C12.7234 21.6882 13.4937 21.2897 14.1711 21.5155C15.3664 21.914 16.6679 22.0335 17.9828 21.8343C19.2976 21.635 20.5195 21.1304 21.5422 20.3999H21.5554ZM34.7437 51.7968C38.6484 58.0257 45.3023 66.5257 53.0187 67.6944C60.7351 68.8632 69.5539 62.714 75.0789 57.9061C78.8375 54.6522 80.9625 49.964 81.6929 44.9968L84.907 23.1757C85.0929 21.8741 84.9867 20.5327 84.2297 19.4702C82.264 16.6944 76.6195 11.3421 61.6515 9.07099C46.6836 6.79989 39.764 10.253 37.0812 12.3249C36.0453 13.1218 35.5539 14.3702 35.3679 15.6718L32.1539 37.4929C31.4234 42.4468 32.1008 47.5601 34.757 51.7968H34.7437ZM53.7226 31.2507C52.7 30.5202 51.4914 30.0155 50.1633 29.8163C48.8351 29.6171 47.5336 29.7366 46.3515 30.135C45.6742 30.3608 44.9039 29.9624 44.9836 29.2452C44.9968 29.1788 44.9968 29.0991 45.0101 29.0327C45.4351 26.1374 48.0914 24.1452 50.9468 24.5835C53.8023 25.0218 55.7679 27.7046 55.3429 30.5999C55.3297 30.6663 55.3164 30.746 55.3031 30.8124C55.1703 31.5163 54.3203 31.6624 53.7359 31.2507H53.7226ZM71.8117 33.3093C71.6789 34.0132 70.8289 34.1593 70.2445 33.7476C69.2218 33.0171 68.0133 32.5124 66.6851 32.3132C65.357 32.114 64.0554 32.2335 62.8734 32.6319C62.1961 32.8577 61.4258 32.4593 61.5054 31.7421C61.5187 31.6757 61.5187 31.596 61.532 31.5296C61.957 28.6343 64.6133 26.6421 67.4687 27.0804C70.3242 27.5186 72.2898 30.2015 71.8648 33.0968C71.8515 33.1632 71.8382 33.2429 71.825 33.3093H71.8117ZM70.3906 46.5108C67.7875 52.4476 61.5187 56.1397 54.8781 55.1304C48.2375 54.121 43.3101 48.7288 42.5265 42.2874C42.3937 41.185 43.7086 40.6804 44.5453 41.3976C47.7195 44.16 51.664 46.0858 56.1 46.7499C60.5359 47.414 64.8789 46.7632 68.7039 45.0499C69.7132 44.5983 70.8289 45.4749 70.3773 46.4976L70.3906 46.5108Z" fill="white"/>
</svg>
