<svg width="84" height="84" viewBox="0 0 84 84" fill="none" xmlns="http://www.w3.org/2000/svg">
<path d="M42 84C53.1391 84 63.822 79.575 71.6985 71.6985C79.575 63.822 84 53.1391 84 42C84 30.8609 79.575 20.178 71.6985 12.3015C63.822 4.42499 53.1391 0 42 0C30.8609 0 20.178 4.42499 12.3015 12.3015C4.42499 20.178 0 30.8609 0 42C0 53.1391 4.42499 63.822 12.3015 71.6985C20.178 79.575 30.8609 84 42 84ZM42 47.25C44.7848 47.25 47.4555 48.3563 49.4246 50.3254C51.3937 52.2945 52.5 54.9652 52.5 57.75C52.5 60.5348 51.3937 63.2055 49.4246 65.1746C47.4555 67.1438 44.7848 68.25 42 68.25C39.2152 68.25 36.5445 67.1438 34.5754 65.1746C32.6062 63.2055 31.5 60.5348 31.5 57.75C31.5 54.9652 32.6062 52.2945 34.5754 50.3254C36.5445 48.3563 39.2152 47.25 42 47.25ZM16.5211 21.7711C17.5383 20.7539 19.2117 20.7539 20.2289 21.7711L26.25 27.7922L32.2711 21.7711C33.2883 20.7539 34.9617 20.7539 35.9789 21.7711C36.9961 22.7883 36.9961 24.4617 35.9789 25.4789L29.9578 31.5L35.9789 37.5211C36.9961 38.5383 36.9961 40.2117 35.9789 41.2289C34.9617 42.2461 33.2883 42.2461 32.2711 41.2289L26.25 35.2078L20.2289 41.2289C19.2117 42.2461 17.5383 42.2461 16.5211 41.2289C15.5039 40.2117 15.5039 38.5383 16.5211 37.5211L22.5422 31.5L16.5211 25.4789C15.5039 24.4617 15.5039 22.7883 16.5211 21.7711ZM48.0211 21.7711C49.0383 20.7539 50.7117 20.7539 51.7289 21.7711L57.75 27.7922L63.7711 21.7711C64.7883 20.7539 66.4617 20.7539 67.4789 21.7711C68.4961 22.7883 68.4961 24.4617 67.4789 25.4789L61.4578 31.5L67.4789 37.5211C68.4961 38.5383 68.4961 40.2117 67.4789 41.2289C66.4617 42.2461 64.7883 42.2461 63.7711 41.2289L57.75 35.2078L51.7289 41.2289C50.7117 42.2461 49.0383 42.2461 48.0211 41.2289C47.0039 40.2117 47.0039 38.5383 48.0211 37.5211L54.0422 31.5L48.0211 25.4789C47.0039 24.4617 47.0039 22.7883 48.0211 21.7711Z" fill="white"/>
</svg>
