<svg width="72" height="72" viewBox="0 0 72 72" fill="none" xmlns="http://www.w3.org/2000/svg">
<path d="M22.612 13.5701C24.5808 15.9607 26.9714 17.9154 29.573 19.5044C33.2152 21.7263 37.1245 23.1466 40.4995 23.9482V19.5185C37.3777 15.2576 35.1558 10.0544 34.9589 3.93726C34.9027 2.3482 33.9042 0.913824 32.3714 0.506011C31.3027 0.224761 30.1495 0.477886 29.4183 1.32164C27.548 3.48726 24.8199 7.59351 22.612 13.5841V13.5701ZM44.9995 20.2498V24.5529V24.7357V29.2498C36.4496 28.5326 18.9839 23.0904 14.1605 7.14351C13.6964 5.62476 12.3605 4.49976 10.7714 4.49976C9.66049 4.49976 8.61986 5.0482 8.12767 6.04664C6.5808 9.26695 4.49955 15.7638 4.49955 24.7498C4.49955 41.1888 15.7636 50.1326 21.1495 53.2685L1.65892 58.5841C0.941737 58.781 0.365175 59.3154 0.126112 60.0185C-0.11295 60.7216 0.0136121 61.5091 0.44955 62.0998C3.05111 65.5591 10.8699 71.9998 22.4995 71.9998C23.0058 71.9998 23.512 71.831 23.9058 71.5076L34.537 62.9998H44.9995C57.4308 62.9998 67.4995 52.931 67.4995 40.4998V17.9998L71.7042 11.6857C71.887 11.4044 71.9995 11.0669 71.9995 10.7295C71.9995 9.7732 71.2261 8.99976 70.2699 8.99976H56.2495C50.0339 8.99976 44.9995 14.0341 44.9995 20.2498ZM56.2495 17.9998C56.8463 17.9998 57.4186 18.2368 57.8405 18.6588C58.2625 19.0807 58.4995 19.653 58.4995 20.2498C58.4995 20.8465 58.2625 21.4188 57.8405 21.8408C57.4186 22.2627 56.8463 22.4998 56.2495 22.4998C55.6528 22.4998 55.0805 22.2627 54.6586 21.8408C54.2366 21.4188 53.9995 20.8465 53.9995 20.2498C53.9995 19.653 54.2366 19.0807 54.6586 18.6588C55.0805 18.2368 55.6528 17.9998 56.2495 17.9998Z" fill="white"/>
</svg>
