<svg width="71" height="57" viewBox="0 0 71 57" fill="none" xmlns="http://www.w3.org/2000/svg">
<path d="M8.27591 41.5473C12.902 45.5663 20.2572 50.7319 26.7026 49.7522C27.3793 49.652 28.045 49.4739 28.6995 49.2512C27.6789 47.8819 26.7803 46.5348 26.0148 45.3102C23.5853 41.4137 22.8198 36.9383 23.1415 32.6633C20.8562 33.1198 18.7928 34.1106 17.0733 35.4911C16.3522 36.07 15.265 35.6358 15.4314 34.7118C16.1414 30.9823 19.0923 27.9319 22.9973 27.3307C23.2858 27.2862 23.5853 27.2528 23.8737 27.2417L26.0259 12.6243C26.2478 11.088 26.9134 8.98385 28.7994 7.51432C30.8628 5.92233 34.4461 4.11881 40.2925 3.58444C40.2037 3.50651 40.115 3.42858 40.0262 3.35065C37.7853 1.61393 31.9943 -1.2806 19.4917 0.623111C6.98904 2.52682 2.27419 7.01335 0.632319 9.34011C-2.49684e-05 10.2307 -0.088775 11.3551 0.0665375 12.4462L2.75122 30.7374C3.36138 34.8899 5.13638 38.8198 8.27591 41.5585V41.5473ZM18.0051 17.0997C18.4933 16.7546 19.2033 16.877 19.3142 17.4671C19.3253 17.5227 19.3364 17.5895 19.3475 17.6452C19.7025 20.0721 18.0606 22.321 15.6754 22.6883C13.2903 23.0557 11.0715 21.3747 10.7165 18.9589C10.7054 18.9032 10.7054 18.8364 10.6943 18.7807C10.6278 18.1796 11.2712 17.8456 11.837 18.0348C12.8354 18.3688 13.9226 18.469 15.0209 18.302C16.1192 18.135 17.1398 17.712 17.994 17.0997H18.0051ZM29.0212 43.4176C32.2828 48.6389 37.8408 55.7639 44.2862 56.7436C50.7317 57.7233 58.0979 52.5688 62.7129 48.5387C65.8525 45.8112 67.6275 41.8813 68.2376 37.7176L70.9223 19.4264C71.0776 18.3354 70.9889 17.211 70.3565 16.3204C68.7147 13.9936 63.9998 9.5071 51.4972 7.60339C38.9945 5.69967 33.2147 8.59421 30.9737 10.3309C30.1084 10.9989 29.6979 12.0454 29.5426 13.1364L26.8579 31.4276C26.2478 35.5801 26.8136 39.8663 29.0323 43.4176H29.0212ZM44.8742 26.1952C44.02 25.5829 43.0104 25.1598 41.9011 24.9928C40.7917 24.8258 39.7045 24.926 38.7172 25.26C38.1514 25.4493 37.5079 25.1153 37.5745 24.5141C37.5856 24.4585 37.5856 24.3917 37.5967 24.336C37.9517 21.909 40.1704 20.2391 42.5556 20.6065C44.9408 20.9739 46.5826 23.2227 46.2276 25.6497C46.2165 25.7053 46.2054 25.7721 46.1944 25.8278C46.0834 26.4178 45.3734 26.5403 44.8853 26.1952H44.8742ZM59.9839 27.9208C59.8729 28.5108 59.1629 28.6333 58.6748 28.2882C57.8206 27.6758 56.8111 27.2528 55.7017 27.0858C54.5923 26.9188 53.5051 27.019 52.5178 27.353C51.952 27.5423 51.3086 27.2083 51.3751 26.6071C51.3862 26.5514 51.3862 26.4846 51.3973 26.429C51.7523 24.002 53.9711 22.3321 56.3562 22.6995C58.7414 23.0669 60.3833 25.3157 60.0283 27.7426C60.0172 27.7983 60.0061 27.8651 59.995 27.9208H59.9839ZM58.7968 38.9868C56.6225 43.9632 51.3862 47.0581 45.8394 46.212C40.2925 45.3659 36.1767 40.846 35.5222 35.4465C35.4112 34.5225 36.5095 34.0995 37.2084 34.7007C39.8598 37.0163 43.1547 38.6305 46.86 39.1872C50.5653 39.7438 54.1929 39.1983 57.3879 37.7622C58.2311 37.3837 59.1629 38.1184 58.7858 38.9757L58.7968 38.9868Z" fill="white"/>
</svg>
