<svg width="71" height="80" viewBox="0 0 71 80" fill="none" xmlns="http://www.w3.org/2000/svg">
<path d="M35.5 0C38.8626 0 42.0875 1.31696 44.4651 3.66117C46.8428 6.00537 48.1786 9.18479 48.1786 12.5C48.1786 15.8152 46.8428 18.9946 44.4651 21.3388C42.0875 23.683 38.8626 25 35.5 25C32.1375 25 28.9126 23.683 26.5349 21.3388C24.1573 18.9946 22.8215 15.8152 22.8215 12.5C22.8215 9.18479 24.1573 6.00537 26.5349 3.66117C28.9126 1.31696 32.1375 0 35.5 0ZM69.225 59.8125L59.1931 72.1875C56.5623 75.4219 51.7762 75.9531 48.4956 73.3594C45.7063 71.1562 44.898 67.4062 46.3561 64.3438L46.2293 64.3281C40.0643 63.4531 34.4541 60.4062 30.4286 55.7656V50C30.4286 47.2344 28.1623 45 25.3572 45C22.5521 45 20.2858 47.2344 20.2858 50V57.5C20.2858 57.625 20.2858 57.75 20.3016 57.875L36.3717 65.7969C40.1277 67.6562 41.6492 72.1562 39.7791 75.8594C37.909 79.5625 33.3288 81.0625 29.5728 79.2188L4.31076 66.7656C4.13643 66.6875 3.9621 66.5938 3.78777 66.5C3.01121 66.0625 2.32974 65.5 1.7909 64.8438C1.06188 64 0.554738 63.0156 0.26947 61.9688C-0.253521 60.0938 -0.0316462 58.0312 1.03018 56.25C1.12527 56.0781 1.23621 55.9062 1.34715 55.75L11.9813 40.0156C16.2128 33.75 23.3445 30 30.9675 30H42.8853C50.2547 30 57.1646 33.5156 61.4594 39.4219L69.4945 50.5C69.8431 50.9688 70.1284 51.4531 70.3661 51.9688C70.8257 53.0156 71.0476 54.125 71 55.2188C70.9525 56.875 70.3344 58.5 69.225 59.8125ZM50.7143 51.875C50.7143 50.0516 49.9797 48.303 48.6719 47.0136C47.3642 45.7243 45.5905 45 43.7411 45C41.8917 45 40.118 45.7243 38.8103 47.0136C37.5026 48.303 36.7679 50.0516 36.7679 51.875C36.7679 53.6984 37.5026 55.447 38.8103 56.7364C40.118 58.0257 41.8917 58.75 43.7411 58.75C45.5905 58.75 47.3642 58.0257 48.6719 56.7364C49.9797 55.447 50.7143 53.6984 50.7143 51.875Z" fill="white"/>
</svg>
