<svg width="71" height="81" viewBox="0 0 71 81" fill="none" xmlns="http://www.w3.org/2000/svg">
<g clip-path="url(#clip0_171_222)">
<path d="M34.7554 0.0790039C35.2466 -0.015918 35.7538 -0.015918 36.2451 0.0790039L67.9415 6.40713C69.7165 6.75518 71.0002 8.32139 71.0002 10.1249C71.0002 11.9284 69.7165 13.4946 67.9415 13.8427L55.7859 16.279V25.3124C55.7859 36.4974 46.7049 45.5624 35.5002 45.5624C24.2955 45.5624 15.2145 36.4974 15.2145 25.3124V16.279L7.60736 14.7603V25.0593L10.0955 37.4624C10.2382 38.206 10.048 38.9812 9.57254 39.5665C9.09709 40.1519 8.36808 40.4999 7.60736 40.4999H2.53593C1.77522 40.4999 1.06205 40.1677 0.570755 39.5665C0.07946 38.9653 -0.110719 38.206 0.0477636 37.4624L2.53593 25.0593V13.7003C1.03035 13.1782 0.000218952 11.7544 0.000218952 10.1249C0.000218952 8.32139 1.28392 6.75518 3.05892 6.40713L34.7554 0.0790039ZM17.7344 51.8431C19.3984 51.3052 21.1893 51.9064 22.3937 53.1878L33.646 65.1321C34.6444 66.1921 36.3402 66.1921 37.3386 65.1321L48.5908 53.1878C49.7953 51.9064 51.5862 51.3052 53.2502 51.8431C63.5516 55.1495 71.0002 64.7683 71.0002 76.1431C71.0002 78.8325 68.8132 80.9999 66.1348 80.9999H4.86562C2.18727 80.9999 0.000218952 78.8167 0.000218952 76.1431C0.000218952 64.7683 7.44888 55.1495 17.7344 51.8431Z" fill="white"/>
</g>
<defs>
<clipPath id="clip0_171_222">
<rect width="71" height="81" fill="white"/>
</clipPath>
</defs>
</svg>
