<svg width="71" height="81" viewBox="0 0 71 81" fill="none" xmlns="http://www.w3.org/2000/svg">
<path d="M32.1339 0.866105C34.167 -0.288702 36.8287 -0.288702 38.8618 0.866105L42.1519 2.71696C43.2609 3.33391 44.5548 3.63448 45.8671 3.5712L49.8041 3.36555C52.2439 3.23899 54.5358 4.37798 55.6264 6.24465L57.4008 9.26613C57.9922 10.2786 58.9534 11.0853 60.1178 11.5916L63.6852 13.126C65.8662 14.0594 67.197 16.021 67.0492 18.1091L66.8089 21.4786C66.7349 22.6018 67.0861 23.7249 67.807 24.6583L69.988 27.4741C71.3373 29.2142 71.3373 31.4922 69.988 33.2323L67.807 36.064C67.0861 37.0131 66.7349 38.1205 66.8089 39.2436L67.0492 42.6131C67.197 44.7013 65.8662 46.6629 63.6852 47.5962L60.1548 49.1149C58.9719 49.6211 58.0292 50.4437 57.4377 51.4403L55.6448 54.4934C54.5543 56.3601 52.2624 57.4991 49.8225 57.3725L45.8856 57.1669C44.5732 57.1036 43.2609 57.4041 42.1704 58.0211L38.8803 59.8878C36.8471 61.0426 34.1855 61.0426 32.1523 59.8878L28.8438 58.0211C27.7348 57.4041 26.4409 57.1036 25.1286 57.1669L21.1916 57.3725C18.7518 57.4991 16.4599 56.3601 15.3693 54.4934L13.5949 51.4719C13.0034 50.4595 12.0423 49.6527 10.8778 49.1465L7.31054 47.612C5.12949 46.6787 3.79867 44.7171 3.94654 42.629L4.18683 39.2594C4.26076 38.1363 3.90958 37.0131 3.18872 36.0798L1.02615 33.2481C-0.323142 31.508 -0.323142 29.23 1.02615 27.4899L3.18872 24.6741C3.90958 23.7249 4.26076 22.6176 4.18683 21.4944L3.94654 18.1249C3.79867 16.0368 5.12949 14.0752 7.31054 13.1419L10.8409 11.6232C12.0238 11.1012 12.985 10.2786 13.5764 9.26613L15.3509 6.24465C16.4414 4.37798 18.7333 3.23899 21.1731 3.36555L25.1101 3.5712C26.4225 3.63448 27.7348 3.33391 28.8253 2.71696L32.1339 0.866105ZM50.2846 30.369C50.2846 27.0126 48.7267 23.7937 45.9537 21.4203C43.1806 19.047 39.4195 17.7136 35.4978 17.7136C31.5761 17.7136 27.8151 19.047 25.042 21.4203C22.269 23.7937 20.7111 27.0126 20.7111 30.369C20.7111 33.7255 22.269 36.9444 25.042 39.3177C27.8151 41.6911 31.5761 43.0244 35.4978 43.0244C39.4195 43.0244 43.1806 41.6911 45.9537 39.3177C48.7267 36.9444 50.2846 33.7255 50.2846 30.369ZM0.249846 69.8855L8.21623 53.6708C8.25319 53.6866 8.27168 53.7024 8.29016 53.7341L10.0646 56.7556C12.2271 60.4256 16.7186 62.6561 21.5243 62.4188L25.4613 62.2132C25.4983 62.2132 25.5537 62.2132 25.5907 62.2448L28.8808 64.1115C29.8234 64.6335 30.8215 65.0448 31.8566 65.3296L24.9068 79.4562C24.4817 80.3263 23.539 80.9116 22.4485 80.9907C21.358 81.0698 20.3044 80.6426 19.713 79.8517L13.7613 72.0528L3.39204 73.3658C2.33848 73.4923 1.28492 73.1285 0.619515 72.4166C-0.04589 71.7048 -0.175274 70.724 0.231362 69.8855H0.249846ZM46.0889 79.4404L39.1391 65.3296C40.1742 65.0448 41.1723 64.6494 42.1149 64.1115L45.405 62.2448C45.442 62.229 45.4789 62.2132 45.5344 62.2132L49.4714 62.4188C54.2771 62.6561 58.7686 60.4256 60.9311 56.7556L62.7055 53.7341C62.724 53.7024 62.7425 53.6866 62.7795 53.6708L70.7643 69.8855C71.171 70.724 71.0231 71.6889 70.3762 72.4166C69.7293 73.1443 68.6572 73.5081 67.6037 73.3658L57.2344 72.0528L51.2827 79.8359C50.6913 80.6268 49.6377 81.0539 48.5472 80.9748C47.4567 80.8957 46.514 80.2946 46.0889 79.4404Z" fill="white"/>
</svg>
