<svg width="43" height="43" viewBox="0 0 43 43" fill="none" xmlns="http://www.w3.org/2000/svg">
<path d="M21.1735 14.0971C19.777 14.0976 18.412 14.512 17.2511 15.2877C16.0902 16.0634 15.1855 17.1657 14.6514 18.4552C14.1174 19.7446 13.9779 21.1634 14.2507 22.5321C14.5234 23.9008 15.1962 25.1579 16.1839 26.1445C17.1715 27.1312 18.4298 27.803 19.7995 28.0751C21.1692 28.3471 22.5889 28.2072 23.8791 27.673C25.1692 27.1389 26.2719 26.2344 27.0477 25.074C27.8235 23.9136 28.2376 22.5494 28.2376 21.1538C28.2362 19.2822 27.4914 17.4877 26.1669 16.1646C24.8423 14.8414 23.0463 14.0978 21.1735 14.0971ZM37.6834 8.67299C37.3239 7.76259 36.781 6.93571 36.0885 6.24365C35.396 5.55159 34.5685 5.00911 33.6575 4.64987C30.8774 3.55314 24.2581 3.79921 21.1735 3.79921C18.0889 3.79921 11.4762 3.54388 8.68816 4.64987C7.77714 5.00911 6.9497 5.55159 6.25717 6.24365C5.56464 6.93571 5.02179 7.76259 4.6623 8.67299C3.56615 11.4512 3.81106 18.0726 3.81106 21.1525C3.81106 24.2323 3.56615 30.8458 4.6676 33.6333C5.02709 34.5437 5.56993 35.3706 6.26246 36.0626C6.95499 36.7547 7.78244 37.2972 8.69346 37.6564C11.4736 38.7531 18.0929 38.5071 21.1788 38.5071C24.2647 38.5071 30.8748 38.7624 33.6628 37.6564C34.5738 37.2972 35.4013 36.7547 36.0938 36.0626C36.7863 35.3706 37.3292 34.5437 37.6887 33.6333C38.7941 30.8551 38.5399 24.2336 38.5399 21.1538C38.5399 18.0739 38.7941 11.4618 37.6887 8.67431L37.6834 8.67299ZM21.1735 32.0021C19.0265 32.0021 16.9276 31.3658 15.1424 30.1738C13.3572 28.9818 11.9658 27.2875 11.1442 25.3052C10.3225 23.323 10.1076 21.1418 10.5264 19.0374C10.9453 16.933 11.9792 15.0001 13.4974 13.4829C15.0156 11.9657 16.9499 10.9326 19.0557 10.514C21.1615 10.0954 23.3442 10.3102 25.3278 11.1313C27.3114 11.9524 29.0068 13.3428 30.1997 15.1268C31.3925 16.9108 32.0292 19.0082 32.0292 21.1538C32.0309 22.5789 31.7513 23.9904 31.2064 25.3073C30.6614 26.6243 29.8619 27.8209 28.8535 28.8286C27.8451 29.8363 26.6477 30.6353 25.3298 31.1798C24.012 31.7244 22.5996 32.0038 21.1735 32.0021ZM32.4766 12.3826C31.9754 12.3828 31.4854 12.2345 31.0685 11.9565C30.6517 11.6784 30.3267 11.283 30.1347 10.8203C29.9427 10.3577 29.8923 9.84851 29.99 9.35724C30.0876 8.86596 30.3288 8.41465 30.6831 8.06039C31.0374 7.70613 31.4889 7.46484 31.9805 7.36703C32.472 7.26922 32.9816 7.31928 33.4447 7.5109C33.9078 7.70251 34.3036 8.02707 34.582 8.44351C34.8605 8.85994 35.0092 9.34956 35.0092 9.85042C35.0106 10.183 34.9462 10.5126 34.8199 10.8203C34.6935 11.1281 34.5076 11.4078 34.2728 11.6436C34.038 11.8793 33.7589 12.0664 33.4516 12.1941C33.1443 12.3218 32.8148 12.3877 32.4819 12.3879L32.4766 12.3826ZM42.207 29.8853C42.0362 33.2761 41.2618 36.2805 38.7848 38.7492C36.3079 41.2178 33.304 42.0076 29.915 42.169C26.4186 42.3661 15.9363 42.3661 12.44 42.169C9.04693 41.9984 6.05104 41.2231 3.57013 38.7492C1.08921 36.2752 0.309453 33.2695 0.147941 29.8853C-0.0493138 26.3901 -0.0493138 15.9135 0.147941 12.4222C0.31872 9.0315 1.08391 6.02707 3.57013 3.55842C6.05634 1.08978 9.06017 0.309242 12.44 0.147841C15.9363 -0.0492803 26.4186 -0.0492803 29.915 0.147841C33.308 0.318503 36.3132 1.09376 38.7848 3.56769C41.2565 6.04163 42.0455 9.04739 42.207 12.4381C42.4043 15.9202 42.4043 26.3874 42.207 29.8853Z" fill="white"/>
</svg>
