<svg width="38" height="31" viewBox="0 0 38 31" fill="none" xmlns="http://www.w3.org/2000/svg">
<path d="M37.4508 2.64846C36.9316 8.00988 34.6851 21.0204 33.5417 27.0254C33.0581 29.5662 32.1058 30.4182 31.184 30.5015C29.1808 30.6828 27.6592 29.2003 25.7187 27.9502C22.6823 25.994 20.9669 24.7762 18.0193 22.8674C14.6132 20.6614 16.8213 19.4494 18.7625 17.467C19.2705 16.9484 28.0979 9.05742 28.2688 8.34156C28.29 8.25201 28.3105 7.91773 28.1082 7.74219C27.9059 7.56664 27.6088 7.62611 27.3939 7.67383C27.0894 7.74182 22.2386 10.8928 12.8415 17.1268C11.4648 18.056 10.2177 18.5087 9.10025 18.485C7.8684 18.4589 5.49889 17.8006 3.7373 17.2377C1.57674 16.5476 -0.140468 16.1827 0.00907879 15.0104C0.086982 14.3998 0.942526 13.7754 2.57571 13.1374C12.6332 8.83092 19.3397 5.99173 22.6953 4.6198C32.2763 0.70322 34.2672 0.0229086 35.5648 0.000213272C35.8503 -0.00443517 36.4884 0.0650183 36.9017 0.394647C37.1766 0.62946 37.3519 0.957137 37.3927 1.31285C37.4628 1.75453 37.4822 2.20252 37.4508 2.64846Z" fill="white"/>
</svg>
