<svg width="48" height="31" viewBox="0 0 48 31" fill="none" xmlns="http://www.w3.org/2000/svg">
<path d="M0.414551 0.958984H8.44513C8.7089 14.325 14.6291 19.9866 19.3185 21.154V0.958984H26.8801V12.4864C31.5108 11.9904 36.376 6.73733 38.0173 0.958984H45.5789C44.9602 3.95572 43.7272 6.79299 41.9571 9.29382C40.1871 11.7945 37.918 13.9046 35.2916 15.4924C38.2241 16.942 40.8142 18.9949 42.8907 21.5153C44.9672 24.0358 46.4828 26.9664 47.3374 30.1134H39.0138C38.2468 27.3798 36.686 24.9327 34.5273 23.0791C32.3687 21.2257 29.7083 20.0483 26.8801 19.6948V30.1134H25.9715C9.93985 30.1134 0.795566 19.1695 0.414551 0.958984Z" fill="white"/>
</svg>
