<svg width="44" height="44" viewBox="0 0 44 44" fill="none" xmlns="http://www.w3.org/2000/svg">
<path d="M21.4219 3.64107C11.6086 3.64107 3.63105 11.6704 3.61755 21.5475C3.61755 24.9305 4.56244 28.2319 6.34422 31.0714L6.76267 31.7507L4.96739 38.3535L11.7031 36.5737L12.351 36.9677C15.0777 38.5981 18.2093 39.4676 21.4084 39.4676H21.4219C31.2217 39.4676 39.4152 31.4382 39.4152 21.5611C39.4152 16.7788 37.3634 12.2818 34.0024 8.89888C30.6278 5.50236 26.1733 3.64107 21.4219 3.64107ZM31.8831 29.2373C31.4377 30.5008 29.3049 31.642 28.279 31.7914C26.5783 32.0496 25.2554 31.9137 21.8673 30.4464C16.5085 28.1096 12.9989 22.6752 12.7289 22.3219C12.459 21.9687 10.5422 19.4009 10.5422 16.7516C10.5422 14.1024 11.919 12.7981 12.4185 12.2546C12.9044 11.7112 13.4849 11.5753 13.8493 11.5753C14.2003 11.5753 14.5647 11.5753 14.8752 11.5889C15.1991 11.6025 15.6446 11.4667 16.0765 12.5128C16.522 13.5861 17.5884 16.2354 17.7233 16.5071C17.8583 16.7788 17.9528 17.0913 17.7638 17.4445C16.738 19.5096 15.6446 19.4281 16.198 20.3791C18.2633 23.9523 20.3285 25.1886 23.4736 26.7782C24.0136 27.0499 24.324 27.0091 24.6345 26.6423C24.945 26.2891 25.9708 25.0663 26.3218 24.5365C26.6727 23.993 27.0372 24.0881 27.5231 24.2647C28.0091 24.4414 30.6413 25.7456 31.1812 26.0173C31.7211 26.2891 32.0721 26.4249 32.2071 26.6423C32.3286 26.9004 32.3286 27.9873 31.8831 29.2373ZM21.4084 43.0951C17.8178 43.0951 14.2948 42.1848 11.1766 40.4729H1.91677L2.86165 32.3077C0.985377 29.047 0 25.338 0 21.5339C0.0134984 9.6597 9.61082 0 21.4084 0C27.1317 0 32.504 2.2417 36.5535 6.31753C40.5896 10.3934 43.0193 15.8006 43.0193 21.5611C43.0193 33.4353 33.2059 43.0951 21.4084 43.0951Z" fill="white"/>
</svg>
